<svg width="531" height="395" viewBox="0 0 531 395" fill="none" xmlns="http://www.w3.org/2000/svg">
<path d="M178.441 193.76L216.846 302.528L161.38 357.505L105.604 20.5119L151.906 49.1225L165.015 129.075L167.301 128.789C168.842 112.635 173.713 99.5249 181.915 89.4599C190.096 79.2801 207.449 72.5277 222.268 70.67C235.816 68.9715 253.7 78.9615 265.25 85.7289C276.864 92.3709 294.438 137.646 294.438 137.646C294.438 137.646 299.606 165.341 303.309 186.001L306.275 246.012L278.229 275.513L258.762 169.405C257.446 162.232 255.2 149.985 234.233 135.89C221.528 134.842 217.133 133.632 206.125 135.012C198.758 135.936 192.627 138.876 187.732 143.832C182.922 148.777 179.656 155.524 177.932 164.073C176.272 172.496 176.442 182.392 178.441 193.76Z" fill="white" stroke="black" stroke-width="8"/>
<path fill-rule="evenodd" clip-rule="evenodd" d="M345.858 366.198C325.567 365.744 308.284 359.786 294.008 348.324C279.822 336.748 268.839 329.368 261.634 308.662C254.433 287.839 251.293 263.335 252.215 235.149C253.115 207.659 257.842 183.62 266.398 163.034C274.953 142.447 286.188 138.198 300.865 126.918C315.627 115.64 332.683 110.218 352.032 110.65C365.045 110.941 377.066 114.054 388.096 119.988C399.215 125.808 408.785 134.438 416.808 145.877C424.915 157.317 431.427 159.932 435.578 177.088C439.733 194.128 441.438 214.016 440.695 236.75L363.477 232.865L305.932 247.012L305.695 254.278C305.262 267.501 306.686 278.967 309.967 288.674C313.334 298.384 318.271 305.923 324.778 311.292C331.285 316.661 339.119 319.448 348.28 319.652C354.358 319.788 359.961 318.753 365.088 316.546C370.215 314.339 374.653 310.956 378.4 306.397C382.148 301.837 385.073 296.215 387.177 289.529L437.627 295.184C434.52 311.597 428.784 325.863 420.42 337.98C412.145 349.983 401.932 350.504 389.209 357.068C376.575 363.518 362.124 366.562 345.858 366.198ZM390.034 210.023L307.232 208.512C307.663 197.959 309.708 190.526 313.584 182.023C317.465 173.404 320.698 172.415 327.201 167.453C333.792 162.377 342.959 161.432 351.264 161.617C359.226 161.795 367.94 162.908 373.778 167.798C379.705 172.573 382.67 173.236 385.825 181.548C388.98 189.86 390.384 199.351 390.034 210.023Z" fill="white" stroke="black" stroke-width="8"/>
<path d="M518.9 139.111L499.357 194.391L479.633 194.391L478.773 296.005L417.868 342.805L423.224 179.066L395.336 179.066L405.838 123.584L425.038 123.584L425.656 104.7C426.29 85.3297 423.581 91.1149 429.563 78.4802C435.631 65.8474 443.649 56.4503 453.618 50.2889C463.587 44.1275 474.778 41.1855 487.192 41.463C495.582 41.6505 503.216 42.6917 510.094 44.5866C517.058 46.4834 522.229 48.166 525.608 49.6345L520.044 83.3046C517.934 82.3288 515.308 81.3995 512.167 80.5168C509.111 79.636 505.957 79.1592 502.703 79.0864C494.656 78.9066 488.964 81.3331 485.63 86.3659C482.299 91.2828 480.486 98.2648 480.19 107.312L480.054 138.417L518.9 139.111Z" fill="white" stroke="black" stroke-width="8"/>
<path fill-rule="evenodd" clip-rule="evenodd" d="M178.364 301.478C178.136 282.218 173.242 266.708 163.681 254.949C155.3 244.64 143.196 236.859 127.369 231.605L122.66 230.148C121.937 229.94 121.207 229.736 120.47 229.538L127.369 231.605C125.835 231.095 124.265 230.61 122.66 230.148L127.369 231.605L172.587 193.26C169.898 168.681 161.275 149.314 146.718 135.159C132.247 121.003 112.551 114.026 87.6292 114.228C70.7579 114.364 56.0674 117.848 43.5578 124.68C31.1338 131.51 21.5268 141.161 14.7368 153.633C8.03247 166.103 4.78191 180.924 4.98516 198.097C5.22136 218.054 10.0831 234.434 19.5705 247.238C29.1434 260.041 43.5955 268.975 62.9266 274.04L65.3632 274.676L83.4794 279.405L97.2067 282.988C105.798 285.24 112.175 288.553 116.338 292.929C120.5 297.189 122.664 302.683 122.829 309.412C122.838 317.419 119.918 323.999 114.069 329.152C108.305 334.188 100.627 336.745 91.0347 336.823C81.2716 336.902 79.883 326.064 79.7792 317.299C79.6755 308.533 79.6014 302.277 82.0827 282.639L82.1034 282.591C82.5634 281.527 83.0226 280.464 83.4794 279.405L65.3632 274.676L6.61785 336.045C8.68821 353.902 11.1122 355.521 17.7311 359.941C20.5656 361.834 24.1696 364.241 28.8445 368.656C44.52 383.267 65.418 390.466 91.5386 390.255C108.667 390.116 123.739 386.339 136.756 378.923C149.857 371.391 160.097 360.981 167.477 347.692C174.943 334.403 178.572 318.999 178.364 301.478ZM121.409 173.858C124.775 177.417 126.753 179.508 126.987 199.304C127.222 219.151 106.156 225.041 106.156 225.041L122.66 230.148C124.265 230.61 125.835 231.095 127.369 231.605L120.47 229.538C121.207 229.736 121.937 229.94 122.66 230.148L106.156 225.041L84.6425 220.08C75.4472 217.486 68.9394 213.999 65.119 209.62C61.2986 205.242 59.3506 199.862 59.2751 193.48C59.1804 185.474 62.0166 179.069 67.7839 174.265C73.5499 169.344 80.6548 165.389 89.1333 165.321C95.4708 165.269 99.1881 165.195 107.159 166.636C113.369 168.733 118.189 170.455 121.383 173.831L121.409 173.858Z" fill="white"/>
<path d="M121.383 173.831C118.189 170.455 113.369 168.733 107.159 166.636C99.1881 165.195 95.4708 165.269 89.1333 165.321C80.6548 165.389 73.5499 169.344 67.7839 174.265C62.0166 179.069 59.1804 185.474 59.2751 193.48C59.3506 199.862 61.2986 205.242 65.119 209.62C68.9394 213.999 75.4472 217.486 84.6425 220.08L106.156 225.041M121.383 173.831L121.409 173.858M121.383 173.831C121.392 173.84 121.4 173.849 121.409 173.858M163.681 254.949C173.242 266.708 178.136 282.218 178.364 301.478C178.572 318.999 174.943 334.403 167.477 347.692C160.097 360.981 149.857 371.391 136.756 378.923C123.739 386.339 108.667 390.116 91.5386 390.255C65.418 390.466 44.52 383.267 28.8445 368.656C24.1696 364.241 20.5656 361.834 17.7311 359.941C11.1122 355.521 8.68821 353.902 6.61785 336.045L65.3632 274.676M163.681 254.949C154.487 243.641 140.813 235.374 122.66 230.148M163.681 254.949C155.3 244.64 143.196 236.859 127.369 231.605M127.369 231.605L172.587 193.26C169.898 168.681 161.275 149.314 146.718 135.159C132.247 121.003 112.551 114.026 87.6292 114.228C70.7579 114.364 56.0674 117.848 43.5578 124.68C31.1338 131.51 21.5268 141.161 14.7368 153.633C8.03247 166.103 4.78191 180.924 4.98516 198.097C5.22136 218.054 10.0831 234.434 19.5705 247.238C29.1435 260.041 43.5955 268.975 62.9266 274.04L65.3632 274.676M127.369 231.605L120.47 229.538C121.207 229.736 121.937 229.94 122.66 230.148M127.369 231.605L122.66 230.148M127.369 231.605V231.605ZM127.369 231.605C125.835 231.095 124.265 230.61 122.66 230.148M65.3632 274.676L83.4794 279.405M83.4794 279.405C83.5015 279.354 83.5237 279.302 83.5458 279.251L83.4794 279.405ZM83.4794 279.405L97.2067 282.988C105.798 285.24 112.175 288.553 116.338 292.929C120.5 297.189 122.664 302.683 122.829 309.412C122.838 317.419 119.918 323.999 114.069 329.152C108.305 334.188 100.627 336.745 91.0347 336.823C81.2716 336.902 79.883 326.064 79.7792 317.299C79.6755 308.533 79.6014 302.277 82.0827 282.639M83.4794 279.405C83.0226 280.464 82.5634 281.527 82.1034 282.591M106.156 225.041C106.156 225.041 127.222 219.151 126.987 199.304C126.753 179.508 124.775 177.417 121.409 173.858M106.156 225.041L122.66 230.148M82.0827 282.639L82.1034 282.591M82.0827 282.639C82.0896 282.623 82.0965 282.607 82.1034 282.591" stroke="black" stroke-width="8"/>
</svg>
