<svg width="228" height="272" viewBox="0 0 228 272" fill="none" xmlns="http://www.w3.org/2000/svg">
<path d="M40.3459 111.308C35.5636 112.357 30.9655 112.678 26.5517 112.27C22.1172 111.768 18.0751 110.591 14.4254 108.738C10.8694 106.864 7.84644 104.284 5.35645 100.997C2.86646 97.7103 1.08098 93.8266 0 89.3462L14.0657 86.2612C15.581 91.8257 18.4436 95.9154 22.6535 98.5302C26.9367 101.031 32.1727 101.602 38.3616 100.245C43.8941 99.0313 47.8772 97.0274 50.3111 94.2331C52.8182 91.3244 53.7221 88.276 53.0228 85.0878C52.4058 82.2747 50.8338 80.2607 48.3069 79.0458C45.8737 77.8104 42.8459 77.0003 39.2233 76.6155C35.6945 76.21 31.9416 75.9029 27.9645 75.6941C24.0606 75.371 20.2563 74.8295 16.5515 74.0695C12.9198 73.1953 9.74801 71.7287 7.03597 69.67C4.39713 67.4968 2.61496 64.3004 1.68945 60.0807C0.640542 55.2984 1.03811 50.8377 2.88216 46.6985C4.70564 42.4655 7.80288 38.8869 12.1739 35.9626C16.5243 32.9445 21.8877 30.7362 28.2641 29.3376C34.3592 28.0008 40.0036 27.7456 45.1973 28.5721C50.4847 29.378 54.9932 31.3377 58.7228 34.4509C62.4318 37.4704 64.9868 41.7259 66.3878 47.2172L52.3221 50.3022C50.6695 45.4558 47.8147 42.2981 43.7578 40.8291C39.7947 39.3396 35.2344 39.1604 30.077 40.2916C24.8258 41.4433 20.9936 43.4632 18.5803 46.3513C16.167 49.2394 15.3202 52.3244 16.0401 55.6064C16.616 58.232 18.1102 60.1156 20.5228 61.2572C23.0292 62.3783 26.0365 63.0947 29.5447 63.4063C33.1467 63.6974 36.8996 64.0045 40.8035 64.3276C44.7805 64.5364 48.5849 65.078 52.2165 65.9522C55.9419 66.8059 59.1343 68.3662 61.7937 70.6331C64.5469 72.8794 66.4171 76.2531 67.4043 80.7541C68.4738 85.6302 68.0762 90.091 66.2116 94.1364C64.4407 98.1612 61.3801 101.683 57.0297 104.701C52.6587 107.625 47.0975 109.828 40.3459 111.308Z" fill="white"/>
<path d="M135.522 69.1988L135.342 48.2677C135.348 42.4678 133.772 38.1943 130.614 35.447C127.529 32.5854 123.455 31.7099 118.391 32.8206C112.671 34.0751 107.601 37.3984 103.182 42.7904C98.7626 48.1824 95.3056 55.7221 92.8111 65.4095L90.3405 49.44C93.2373 41.1386 97.1446 34.5321 102.063 29.6205C107.054 24.5945 112.831 21.3617 119.395 19.922C125.209 18.6468 130.363 18.8433 134.856 20.5113C139.423 22.065 142.997 24.9175 145.579 29.0688C148.233 33.1059 149.562 38.269 149.566 44.5583L149.728 66.0829L135.522 69.1988ZM80.4705 111.311L79.7379 3.11588L93.9442 0L94.6768 108.195L80.4705 111.311Z" fill="white"/>
<path d="M147.797 158.404C140.858 159.926 134.465 159.903 128.617 158.335C122.842 156.653 117.957 153.646 113.96 149.314C110.036 144.867 107.354 139.362 105.915 132.798C104.434 126.047 104.051 119.595 104.765 113.443C105.553 107.177 107.35 101.475 110.154 96.3392C112.959 91.2031 116.777 86.8767 121.608 83.3601C126.512 79.7292 132.339 77.1733 139.091 75.6925C146.593 74.0472 153.319 74.2427 159.269 76.2792C165.22 78.3157 169.958 81.994 173.483 87.3142C177.082 92.5201 178.995 99.2259 179.222 107.432L115.927 121.314L115.973 110.1L163.406 99.8441C162.316 94.8743 159.847 91.2386 156.001 88.9372C152.155 86.6358 147.184 86.1536 141.089 87.4904C134.431 88.9507 129.363 91.8314 125.883 96.1327C122.383 100.34 120.235 105.332 119.438 111.109C118.641 116.886 118.911 122.822 120.248 128.917C121.235 133.418 122.933 137.125 125.34 140.036C127.842 142.928 130.846 144.972 134.351 146.168C137.93 147.251 141.783 147.339 145.909 146.434C152.754 144.933 157.817 142.25 161.097 138.386C164.471 134.501 166.431 129.992 166.976 124.86L181.182 121.744C180.655 127.855 179.12 133.401 176.576 138.381C174.105 143.248 170.501 147.429 165.764 150.925C161.1 154.307 155.111 156.8 147.797 158.404Z" fill="white"/>
<path d="M48.7021 233.693L48.0663 141.398C48.0768 133.828 50.0252 127.7 53.9117 123.015C57.8713 118.215 63.5082 115.013 70.8224 113.409L94.6768 108.195L94.7319 120.253L74.4773 124.696C70.914 125.477 67.9944 126.953 65.7185 129.123C63.4425 131.293 62.2766 134.94 62.2209 140.063L62.7678 230.608L48.7021 233.693ZM29.9039 168.822L29.906 156.733L86.5905 144.3L86.7291 156.358L29.9039 168.822Z" fill="white"/>
<path d="M118.211 248.684C111.272 250.206 104.879 250.183 99.0309 248.615C93.2565 246.933 88.3708 243.926 84.3739 239.594C80.4501 235.147 77.7684 229.642 76.3287 223.078C74.8479 216.326 74.4648 209.875 75.1794 203.723C75.9672 197.456 77.7635 191.755 80.5683 186.619C83.3731 181.483 87.1909 177.157 92.0216 173.64C96.9256 170.009 102.753 167.453 109.505 165.972C117.007 164.327 123.733 164.523 129.683 166.559C135.634 168.595 140.372 172.274 143.897 177.594C147.496 182.8 149.409 189.506 149.636 197.712L86.341 211.594L86.3875 200.38L133.82 190.124C132.73 185.154 130.261 181.518 126.415 179.217C122.569 176.916 117.598 176.433 111.503 177.77C104.845 179.23 99.7766 182.111 96.2973 186.412C92.7974 190.62 90.649 195.612 89.8522 201.389C89.0553 207.166 89.3253 213.102 90.6621 219.197C91.6493 223.698 93.3468 227.404 95.7545 230.316C98.256 233.207 101.26 235.251 104.765 236.448C108.344 237.53 112.197 237.619 116.323 236.714C123.168 235.213 128.231 232.53 131.511 228.665C134.885 224.78 136.845 220.272 137.39 215.14L151.596 212.024C151.069 218.135 149.534 223.681 146.99 228.661C144.519 233.528 140.915 237.709 136.178 241.205C131.514 244.586 125.525 247.079 118.211 248.684Z" fill="white"/>
<path d="M213.528 192.084L213.475 183.102C213.446 178.489 212.17 175.133 209.645 173.033C207.214 170.913 203.702 170.356 199.107 171.364C193.293 172.639 188.15 176.077 183.678 181.677C179.185 187.183 175.572 194.905 172.837 204.841L170.675 190.278C172.691 184.234 175.09 179.04 177.871 174.695C180.747 170.329 184.052 166.803 187.787 164.117C191.502 161.336 195.703 159.432 200.392 158.404C205.549 157.273 210.183 157.337 214.292 158.598C218.381 159.765 221.608 162.154 223.972 165.763C226.43 169.352 227.667 174.093 227.681 179.986L227.735 188.968L213.528 192.084ZM161.608 249.762L161.097 168.791L174.319 165.892L175.362 184.091L175.814 246.646L161.608 249.762Z" fill="white"/>
<path d="M69.3288 260.687L169.595 44.6879L183.965 46.9291L83.699 262.928L69.3288 260.687Z" fill="white"/>
</svg>
