<svg width="604" height="88" viewBox="0 0 604 88" fill="none" xmlns="http://www.w3.org/2000/svg">
<path d="M11.55 70V21H38.64C41.5333 21 44.17 21.6767 46.55 23.03C48.93 24.3367 50.8433 26.1567 52.29 28.49C53.7367 30.7767 54.46 33.3433 54.46 36.19C54.46 39.0367 53.6667 41.65 52.08 44.03C50.54 46.41 48.4867 48.3233 45.92 49.77C43.4 51.17 40.6 51.87 37.52 51.87H19.11V70H11.55ZM47.74 70L31.92 47.88L39.9 46.13L57.12 70.07L47.74 70ZM19.11 44.59H37.1C38.78 44.59 40.32 44.2167 41.72 43.47C43.1667 42.6767 44.31 41.65 45.15 40.39C46.0367 39.0833 46.48 37.66 46.48 36.12C46.48 34.6733 46.0367 33.3667 45.15 32.2C44.2633 30.9867 43.0733 30.03 41.58 29.33C40.0867 28.63 38.4533 28.28 36.68 28.28H19.11V44.59ZM105.927 70V21H144.637V28.28H113.487V62.72H144.637V70H105.927ZM109.917 48.51V41.23H140.787V48.51H109.917ZM194.22 70V21H201.78V70H194.22ZM196.95 49.7V42.42H229.57V49.7H196.95ZM197.72 28.28V21H232.72V28.28H197.72ZM280.804 70V21H307.894C310.787 21 313.424 21.6767 315.804 23.03C318.184 24.3367 320.097 26.1567 321.544 28.49C322.991 30.7767 323.714 33.3433 323.714 36.19C323.714 39.0367 322.921 41.65 321.334 44.03C319.794 46.41 317.741 48.3233 315.174 49.77C312.654 51.17 309.854 51.87 306.774 51.87H288.364V70H280.804ZM316.994 70L301.174 47.88L309.154 46.13L326.374 70.07L316.994 70ZM288.364 44.59H306.354C308.034 44.59 309.574 44.2167 310.974 43.47C312.421 42.6767 313.564 41.65 314.404 40.39C315.291 39.0833 315.734 37.66 315.734 36.12C315.734 34.6733 315.291 33.3667 314.404 32.2C313.517 30.9867 312.327 30.03 310.834 29.33C309.341 28.63 307.707 28.28 305.934 28.28H288.364V44.59ZM490.755 70.7C486.929 70.7 483.359 70.1167 480.045 68.95C476.732 67.7367 473.815 66.01 471.295 63.77C468.822 61.53 466.885 58.87 465.485 55.79C464.132 52.71 463.455 49.28 463.455 45.5C463.455 41.9067 464.179 38.6167 465.625 35.63C467.119 32.5967 469.125 29.96 471.645 27.72C474.165 25.4333 477.082 23.6833 480.395 22.47C483.709 21.21 487.209 20.58 490.895 20.58C493.882 20.58 496.752 20.9767 499.505 21.77C502.305 22.5633 504.825 23.59 507.065 24.85C509.352 26.11 511.172 27.44 512.525 28.84L507.905 35C506.272 33.6 504.545 32.3867 502.725 31.36C500.952 30.2867 499.039 29.47 496.985 28.91C494.932 28.3033 492.715 28 490.335 28C487.909 28 485.552 28.42 483.265 29.26C480.979 30.1 478.925 31.29 477.105 32.83C475.285 34.3233 473.839 36.1667 472.765 38.36C471.692 40.5067 471.155 42.8867 471.155 45.5C471.155 48.3933 471.692 50.9367 472.765 53.13C473.885 55.3233 475.402 57.19 477.315 58.73C479.229 60.2233 481.399 61.3667 483.825 62.16C486.252 62.9067 488.795 63.28 491.455 63.28C494.022 63.28 496.332 62.9533 498.385 62.3C500.439 61.6467 502.282 60.8067 503.915 59.78C505.549 58.7533 507.042 57.7267 508.395 56.7L512.035 63C510.775 64.0733 509.049 65.2167 506.855 66.43C504.709 67.6433 502.259 68.67 499.505 69.51C496.752 70.3033 493.835 70.7 490.755 70.7ZM571.808 70V28.28H554.168V21H597.428V28.28H579.368V70H571.808Z" fill="white"/>
<path d="M395.793 70H366L396 20.033L407.988 40L391 54.5455H416.5L426 70H395.793Z" fill="white"/>
</svg>
